<svg width="1400" height="804" viewBox="0 0 1400 804" fill="none" xmlns="http://www.w3.org/2000/svg">
<path d="M215 0.497498L0.5 720.38V0.497498H215Z" fill="#001AFF" fill-opacity="0.12"/>
<path d="M1398 119.188L0 217.925V5.98999H1398V119.188Z" fill="#001AFF" fill-opacity="0.1"/>
<path d="M1225 4L1398 704.48V4H1225Z" fill="#001AFF" fill-opacity="0.08"/>
<path d="M1399 577.335L0 442.795V800H1399V577.335Z" fill="#001AFF" fill-opacity="0.1"/>
<path d="M1397.5 632.84L89.5 798.508H1397.5V632.84Z" fill="#001AFF" fill-opacity="0.08"/>
<path d="M1399 49.77L0 35.7936V4H1399V49.77Z" fill="#001AFF" fill-opacity="0.18"/>
<path d="M1399 296.996L0 355V4H1399V296.996Z" fill="#001AFF" fill-opacity="0.06"/>
<path d="M964 800L0 566V800H964Z" fill="#001AFF" fill-opacity="0.1"/>
<path d="M1399.5 311.5L1104 803.5H1399.5V311.5Z" fill="#001AFF" fill-opacity="0.05"/>
<path d="M1399 175L108 4H1399V175Z" fill="#001AFF" fill-opacity="0.16"/>
</svg>
