<svg width="524" height="114" viewBox="0 0 524 114" fill="none" xmlns="http://www.w3.org/2000/svg">
<g filter="url(#filter0_d)">
<path d="M23.207 49.6328V67H10.8672V15.8125H31.293C35.207 15.8125 38.6641 16.5391 41.6641 17.9922C44.6875 19.4219 47.0195 21.4727 48.6602 24.1445C50.3242 26.793 51.1562 29.8047 51.1562 33.1797C51.1562 38.1719 49.3633 42.168 45.7773 45.168C42.2148 48.1445 37.3164 49.6328 31.082 49.6328H23.207ZM23.207 40.1055H31.293C33.6836 40.1055 35.5 39.5078 36.7422 38.3125C38.0078 37.1172 38.6406 35.4297 38.6406 33.25C38.6406 30.8594 37.9961 28.9492 36.707 27.5195C35.418 26.0898 33.6602 25.3633 31.4336 25.3398H23.207V40.1055ZM84.182 57.4375H67.2719L64.3187 67H51.1352L69.9086 15.8125H81.5102L100.424 67H87.1703L84.182 57.4375ZM70.225 47.9102H81.2289L75.7094 30.1562L70.225 47.9102ZM143.751 25.3398H128.387V67H116.048V25.3398H100.966V15.8125H143.751V25.3398ZM171.609 48.9297H164.929V67H152.589V15.8125H172.734C178.804 15.8125 183.55 17.1602 186.972 19.8555C190.394 22.5508 192.105 26.3594 192.105 31.2812C192.105 34.8438 191.378 37.7969 189.925 40.1406C188.495 42.4844 186.245 44.3828 183.175 45.8359L193.863 66.4727V67H180.644L171.609 48.9297ZM164.929 39.4023H172.734C175.077 39.4023 176.835 38.793 178.007 37.5742C179.202 36.332 179.8 34.6094 179.8 32.4062C179.8 30.2031 179.202 28.4805 178.007 27.2383C176.812 25.9727 175.054 25.3398 172.734 25.3398H164.929V39.4023ZM216.306 67H204.002V15.8125H216.306V67ZM269.898 49.668C269.734 53.2305 268.773 56.3828 267.016 59.125C265.258 61.8438 262.785 63.9531 259.598 65.4531C256.434 66.9531 252.812 67.7031 248.734 67.7031C242.008 67.7031 236.711 65.5117 232.844 61.1289C228.977 56.7461 227.043 50.5586 227.043 42.5664V40.0352C227.043 35.0195 227.91 30.6367 229.645 26.8867C231.402 23.1133 233.922 20.207 237.203 18.168C240.484 16.1055 244.281 15.0742 248.594 15.0742C254.805 15.0742 259.797 16.7148 263.57 19.9961C267.344 23.2539 269.488 27.7539 270.004 33.4961H257.699C257.605 30.3789 256.82 28.1406 255.344 26.7812C253.867 25.4219 251.617 24.7422 248.594 24.7422C245.523 24.7422 243.273 25.8906 241.844 28.1875C240.414 30.4844 239.664 34.1523 239.594 39.1914V42.8125C239.594 48.2734 240.273 52.1758 241.633 54.5195C243.016 56.8633 245.383 58.0352 248.734 58.0352C251.57 58.0352 253.738 57.3672 255.238 56.0312C256.738 54.6953 257.535 52.5742 257.629 49.668H269.898ZM296.737 47.9453L291.674 53.5V67H279.334V15.8125H291.674V38.3828L295.963 31.8789L307.002 15.8125H322.26L304.963 38.4531L322.26 67H307.635L296.737 47.9453ZM393.866 42.4609C393.866 47.4531 392.941 51.8711 391.089 55.7148C389.237 59.5586 386.601 62.5234 383.179 64.6094C379.78 66.6719 375.902 67.7031 371.542 67.7031C367.183 67.7031 363.316 66.707 359.941 64.7148C356.566 62.6992 353.929 59.8281 352.03 56.1016C350.155 52.375 349.171 48.0977 349.077 43.2695V40.3867C349.077 35.3711 349.991 30.9531 351.82 27.1328C353.671 23.2891 356.308 20.3242 359.73 18.2383C363.175 16.1523 367.089 15.1094 371.472 15.1094C375.808 15.1094 379.675 16.1406 383.073 18.2031C386.472 20.2656 389.109 23.207 390.984 27.0273C392.882 30.8242 393.843 35.1836 393.866 40.1055V42.4609ZM381.316 40.3164C381.316 35.2305 380.46 31.375 378.749 28.75C377.062 26.1016 374.636 24.7773 371.472 24.7773C365.284 24.7773 362.015 29.418 361.663 38.6992L361.628 42.4609C361.628 47.4766 362.46 51.332 364.124 54.0273C365.788 56.7227 368.261 58.0703 371.542 58.0703C374.659 58.0703 377.062 56.7461 378.749 54.0977C380.437 51.4492 381.292 47.6406 381.316 42.6719V40.3164ZM446.615 67H434.345V45.625H416.17V67H403.83V15.8125H416.17V36.1328H434.345V15.8125H446.615V67ZM474.262 15.8125L485.688 51.4258L497.078 15.8125H513.32V67H500.945V55.0469L502.141 30.5781L489.766 67H481.609L469.199 30.543L470.395 55.0469V67H458.055V15.8125H474.262Z" fill="white"/>
</g>
<g filter="url(#filter1_d)">
<path d="M97.0264 95.9023H92.0518V101H88.9668V88.2031H97.5273V90.585H92.0518V93.5293H97.0264V95.9023ZM112.565 96.4824H110.896V101H107.811V88.2031H112.847C114.364 88.2031 115.551 88.54 116.406 89.2139C117.262 89.8877 117.689 90.8398 117.689 92.0703C117.689 92.9609 117.508 93.6992 117.145 94.2852C116.787 94.8711 116.225 95.3457 115.457 95.709L118.129 100.868V101H114.824L112.565 96.4824ZM110.896 94.1006H112.847C113.433 94.1006 113.872 93.9482 114.165 93.6436C114.464 93.333 114.613 92.9023 114.613 92.3516C114.613 91.8008 114.464 91.3701 114.165 91.0596C113.866 90.7432 113.427 90.585 112.847 90.585H110.896V94.1006ZM139.39 94.8652C139.39 96.1133 139.158 97.2178 138.695 98.1787C138.232 99.1396 137.573 99.8809 136.718 100.402C135.868 100.918 134.898 101.176 133.809 101.176C132.719 101.176 131.752 100.927 130.908 100.429C130.064 99.9248 129.405 99.207 128.931 98.2754C128.462 97.3438 128.216 96.2744 128.192 95.0674V94.3467C128.192 93.0928 128.421 91.9883 128.878 91.0332C129.341 90.0723 130 89.3311 130.855 88.8096C131.717 88.2881 132.695 88.0273 133.791 88.0273C134.875 88.0273 135.842 88.2852 136.691 88.8008C137.541 89.3164 138.2 90.0518 138.669 91.0068C139.144 91.9561 139.384 93.0459 139.39 94.2764V94.8652ZM136.252 94.3291C136.252 93.0576 136.038 92.0938 135.61 91.4375C135.188 90.7754 134.582 90.4443 133.791 90.4443C132.244 90.4443 131.427 91.6045 131.339 93.9248L131.33 94.8652C131.33 96.1191 131.538 97.083 131.954 97.7568C132.37 98.4307 132.988 98.7676 133.809 98.7676C134.588 98.7676 135.188 98.4365 135.61 97.7744C136.032 97.1123 136.246 96.1602 136.252 94.918V94.3291ZM160.668 101H157.601L153.065 93.0371V101H149.98V88.2031H153.065L157.592 96.166V88.2031H160.668V101ZM181.401 90.585H177.561V101H174.476V90.585H170.705V88.2031H181.401V90.585ZM199.647 95.5771H194.796V98.627H200.526V101H191.711V88.2031H200.544V90.585H194.796V93.2832H199.647V95.5771ZM221.471 101H218.403L213.868 93.0371V101H210.783V88.2031H213.868L218.395 96.166V88.2031H221.471V101ZM232.422 101V88.2031H236.544C237.675 88.2031 238.691 88.4609 239.594 88.9766C240.496 89.4863 241.199 90.21 241.703 91.1475C242.213 92.0791 242.471 93.125 242.477 94.2852V94.874C242.477 96.0459 242.228 97.0977 241.729 98.0293C241.237 98.9551 240.54 99.6816 239.638 100.209C238.741 100.73 237.739 100.994 236.632 101H232.422ZM235.507 90.585V98.627H236.579C237.464 98.627 238.144 98.3135 238.618 97.6865C239.093 97.0537 239.33 96.1162 239.33 94.874V94.3203C239.33 93.084 239.093 92.1523 238.618 91.5254C238.144 90.8984 237.452 90.585 236.544 90.585H235.507ZM266.541 101V88.2031H270.663C271.794 88.2031 272.811 88.4609 273.713 88.9766C274.615 89.4863 275.318 90.21 275.822 91.1475C276.332 92.0791 276.59 93.125 276.596 94.2852V94.874C276.596 96.0459 276.347 97.0977 275.849 98.0293C275.356 98.9551 274.659 99.6816 273.757 100.209C272.86 100.73 271.858 100.994 270.751 101H266.541ZM269.626 90.585V98.627H270.698C271.583 98.627 272.263 98.3135 272.737 97.6865C273.212 97.0537 273.449 96.1162 273.449 94.874V94.3203C273.449 93.084 273.212 92.1523 272.737 91.5254C272.263 90.8984 271.571 90.585 270.663 90.585H269.626ZM295.114 95.5771H290.263V98.627H295.993V101H287.178V88.2031H296.011V90.585H290.263V93.2832H295.114V95.5771ZM311.216 97.5195L313.765 88.2031H317.21L312.903 101H309.528L305.257 88.2031H308.676L311.216 97.5195ZM335.087 95.5771H330.235V98.627H335.966V101H327.15V88.2031H335.983V90.585H330.235V93.2832H335.087V95.5771ZM349.308 98.627H354.678V101H346.223V88.2031H349.308V98.627ZM375.253 94.8652C375.253 96.1133 375.021 97.2178 374.559 98.1787C374.096 99.1396 373.437 99.8809 372.581 100.402C371.731 100.918 370.762 101.176 369.672 101.176C368.582 101.176 367.615 100.927 366.771 100.429C365.928 99.9248 365.269 99.207 364.794 98.2754C364.325 97.3438 364.079 96.2744 364.056 95.0674V94.3467C364.056 93.0928 364.284 91.9883 364.741 91.0332C365.204 90.0723 365.863 89.3311 366.719 88.8096C367.58 88.2881 368.559 88.0273 369.654 88.0273C370.738 88.0273 371.705 88.2852 372.555 88.8008C373.404 89.3164 374.063 90.0518 374.532 91.0068C375.007 91.9561 375.247 93.0459 375.253 94.2764V94.8652ZM372.115 94.3291C372.115 93.0576 371.901 92.0938 371.474 91.4375C371.052 90.7754 370.445 90.4443 369.654 90.4443C368.107 90.4443 367.29 91.6045 367.202 93.9248L367.193 94.8652C367.193 96.1191 367.401 97.083 367.817 97.7568C368.233 98.4307 368.852 98.7676 369.672 98.7676C370.451 98.7676 371.052 98.4365 371.474 97.7744C371.896 97.1123 372.109 96.1602 372.115 94.918V94.3291ZM388.929 96.6582V101H385.844V88.2031H390.95C391.929 88.2031 392.793 88.3848 393.543 88.748C394.299 89.1055 394.882 89.6182 395.292 90.2861C395.708 90.9482 395.916 91.7012 395.916 92.5449C395.916 93.793 395.468 94.792 394.571 95.542C393.681 96.2861 392.456 96.6582 390.897 96.6582H388.929ZM388.929 94.2764H390.95C391.548 94.2764 392.002 94.127 392.312 93.8281C392.629 93.5293 392.787 93.1074 392.787 92.5625C392.787 91.9648 392.626 91.4873 392.304 91.1299C391.981 90.7725 391.542 90.5908 390.985 90.585H388.929V94.2764ZM414.505 95.5771H409.653V98.627H415.384V101H406.568V88.2031H415.401V90.585H409.653V93.2832H414.505V95.5771ZM430.396 96.4824H428.726V101H425.641V88.2031H430.677C432.194 88.2031 433.381 88.54 434.236 89.2139C435.092 89.8877 435.52 90.8398 435.52 92.0703C435.52 92.9609 435.338 93.6992 434.975 94.2852C434.617 94.8711 434.055 95.3457 433.287 95.709L435.959 100.868V101H432.654L430.396 96.4824ZM428.726 94.1006H430.677C431.263 94.1006 431.702 93.9482 431.995 93.6436C432.294 93.333 432.443 92.9023 432.443 92.3516C432.443 91.8008 432.294 91.3701 431.995 91.0596C431.696 90.7432 431.257 90.585 430.677 90.585H428.726V94.1006Z" fill="#F2F3E8"/>
</g>
<defs>
<filter id="filter0_d" x="0.867188" y="7.07422" width="522.453" height="72.6289" filterUnits="userSpaceOnUse" color-interpolation-filters="sRGB">
<feFlood flood-opacity="0" result="BackgroundImageFix"/>
<feColorMatrix in="SourceAlpha" type="matrix" values="0 0 0 0 0 0 0 0 0 0 0 0 0 0 0 0 0 0 127 0"/>
<feOffset dy="2"/>
<feGaussianBlur stdDeviation="5"/>
<feColorMatrix type="matrix" values="0 0 0 0 0 0 0 0 0 0 0 0 0 0 0 0 0 0 0.25 0"/>
<feBlend mode="normal" in2="BackgroundImageFix" result="effect1_dropShadow"/>
<feBlend mode="normal" in="SourceGraphic" in2="effect1_dropShadow" result="shape"/>
</filter>
<filter id="filter1_d" x="78.9668" y="80.0273" width="366.992" height="33.1484" filterUnits="userSpaceOnUse" color-interpolation-filters="sRGB">
<feFlood flood-opacity="0" result="BackgroundImageFix"/>
<feColorMatrix in="SourceAlpha" type="matrix" values="0 0 0 0 0 0 0 0 0 0 0 0 0 0 0 0 0 0 127 0"/>
<feOffset dy="2"/>
<feGaussianBlur stdDeviation="5"/>
<feColorMatrix type="matrix" values="0 0 0 0 0 0 0 0 0 0 0 0 0 0 0 0 0 0 0.25 0"/>
<feBlend mode="normal" in2="BackgroundImageFix" result="effect1_dropShadow"/>
<feBlend mode="normal" in="SourceGraphic" in2="effect1_dropShadow" result="shape"/>
</filter>
</defs>
</svg>
